<?xml version="1.0" standalone="no"?>
<!DOCTYPE svg PUBLIC "-//W3C//DTD SVG 20010904//EN"
 "http://www.w3.org/TR/2001/REC-SVG-20010904/DTD/svg10.dtd">
<svg version="1.0" xmlns="http://www.w3.org/2000/svg"
 width="490.000000pt" height="182.000000pt" viewBox="0 0 490.000000 182.000000"
 preserveAspectRatio="xMidYMid meet">

<g transform="translate(0.000000,182.000000) scale(0.100000,-0.100000)"
fill="#FFFFFF" stroke="none">
<path d="M1690 905 c0 -620 2 -705 15 -705 13 0 15 85 15 705 0 620 -2 705
-15 705 -13 0 -15 -85 -15 -705z"/>
<path d="M1128 1305 c-60 -35 -108 -63 -108 -61 0 2 25 22 55 45 57 43 66 58
40 67 -37 14 -299 -172 -423 -300 -59 -61 -72 -80 -67 -97 5 -16 -1 -28 -29
-54 -37 -34 -47 -71 -21 -81 8 -4 15 -14 15 -24 0 -28 26 -43 62 -36 30 6 26
0 -55 -83 -48 -48 -87 -93 -87 -99 0 -21 12 -42 25 -42 7 0 18 -7 25 -15 20
-24 51 -18 116 21 47 28 63 33 76 25 10 -6 24 -11 32 -11 9 0 16 -12 18 -28 3
-25 6 -27 47 -25 33 2 41 -1 33 -9 -18 -18 -14 -46 8 -58 15 -8 36 -5 90 14
39 13 73 20 76 15 13 -22 72 -4 196 59 73 38 148 74 166 80 30 10 42 34 23 46
-5 3 -7 14 -5 24 2 9 0 24 -5 32 -8 12 -20 10 -76 -13 -36 -15 -71 -27 -77
-27 -6 0 30 29 80 65 63 45 92 72 92 86 0 31 -27 34 -84 10 l-51 -21 30 24
c25 21 28 28 19 43 -6 10 -18 19 -26 21 -9 2 -64 -22 -124 -52 -59 -31 -109
-54 -111 -52 -2 2 40 36 92 75 54 41 100 83 106 98 5 14 21 34 35 45 28 23 30
64 3 81 -21 13 -108 -27 -234 -107 l-90 -56 50 45 c28 26 105 89 173 142 121
94 136 114 102 135 -17 11 -60 -4 -120 -43 -42 -27 -31 -15 26 29 32 24 43 40
46 67 10 84 -24 84 -164 0z"/>
<path d="M3715 1245 c-22 -8 -42 -15 -44 -15 -9 0 75 -142 175 -296 13 -18 4
-35 -90 -190 -66 -106 -101 -173 -95 -179 5 -5 40 -11 78 -13 l68 -4 64 111
c35 61 67 111 71 111 3 0 30 -38 59 -86 67 -108 96 -134 155 -134 25 0 58 7
74 15 l30 15 -51 81 c-27 44 -75 121 -106 170 l-55 89 78 128 c117 193 112
181 94 192 -8 5 -43 10 -76 10 l-62 0 -58 -99 -59 -99 -56 86 c-30 48 -63 93
-71 100 -25 20 -79 23 -123 7z"/>
<path d="M2012 908 c-62 -188 -109 -344 -106 -347 3 -3 37 -6 76 -6 l71 0 21
73 21 72 112 0 111 0 17 -52 c10 -29 27 -64 39 -76 19 -21 28 -23 83 -20 34 2
65 6 67 9 3 3 -12 59 -34 125 -21 65 -71 219 -110 342 l-71 222 -93 0 -92 0
-112 -342z m234 58 c19 -70 34 -129 34 -131 0 -3 -32 -5 -71 -5 -69 0 -71 1
-66 23 14 66 62 245 65 242 2 -2 19 -60 38 -129z"/>
<path d="M2610 946 c0 -196 4 -314 11 -335 18 -51 50 -61 199 -61 180 0 220
19 220 104 l0 36 -135 0 -135 0 0 255 0 256 -25 24 c-20 21 -34 25 -80 25
l-55 0 0 -304z"/>
<path d="M3140 931 l0 -320 24 -28 24 -28 159 -3 c188 -4 224 3 247 52 9 19
16 46 16 60 l0 26 -155 0 -155 0 0 75 0 74 113 3 112 3 0 60 0 60 -112 3 -113
3 0 69 0 70 139 0 140 0 7 45 c3 25 3 56 0 70 l-6 25 -220 0 -220 0 0 -319z"/>
</g>
</svg>
